<svg xmlns="http://www.w3.org/2000/svg" viewBox="0 0 1207.75 727.02"><defs><style>.cls-1{fill:#603913;}.cls-2{fill:none;}.cls-3{fill:#fbb040;}</style></defs><g id="Logo_2" data-name="Logo 2"><path class="cls-1" d="M60.89,117.52V834H636.45V117.52Zm51.2,64.17h49.39V213H112.09ZM125.5,470.05l-13.41-21.28C324.87,418,328.9,269.38,328.9,269.38,329.12,453.16,125.5,470.05,125.5,470.05Zm268.51,0H338.69V448.77H394ZM611.07,795.87H587.56V745.49h23.51ZM607,470.05s-203.62-16.89-203.4-200.67c0,0,4,148.6,216.8,179.39Z" transform="translate(-60.89 -106.98)"/></g><g id="Logo_1" data-name="Logo 1"><polygon class="cls-2" points="788.18 490.58 708.26 362.92 631.38 490.58 668.3 490.58 709.78 420.4 720.86 436.91 709.78 437.35 709.78 462.97 736.49 462.97 753.43 490.77 788.18 490.58"/><polygon class="cls-2" points="925 362.92 848.12 490.58 885.04 490.58 926.52 420.4 937.6 436.91 926.52 437.35 926.52 462.97 953.24 462.97 970.18 490.77 1004.93 490.58 925 362.92"/><polygon class="cls-2" points="897.43 541.48 880.52 518.68 868.24 518.68 868.24 550.98 880.52 550.98 880.52 530.59 894.57 550.98 900.33 550.98 914.34 530.59 914.34 550.98 926.62 550.98 926.62 518.68 914.34 518.68 897.43 541.48"/><path class="cls-2" d="M722,640.53v6l17.4-.51c-1.19,3-4.36,4-7.92,5.23a29.51,29.51,0,0,1-9.48,1.14,26.54,26.54,0,0,1-7-.88,22.58,22.58,0,0,1-5.74-2.33,12.3,12.3,0,0,1-3.84-3.39,6.46,6.46,0,0,1,0-8,12.43,12.43,0,0,1,3.84-3.39,23,23,0,0,1,5.74-2.33,27,27,0,0,1,7-.87,21.83,21.83,0,0,1,4.09.37,21.24,21.24,0,0,1,3.64,1,19.34,19.34,0,0,1,3,1.4,17.63,17.63,0,0,1,2.34,1.62l10-3.83a32.15,32.15,0,0,0-10-5.17A42.88,42.88,0,0,0,722,624.75a49.75,49.75,0,0,0-11.88,1.36,37.7,37.7,0,0,0-9.66,3.69,21.19,21.19,0,0,0-6.47,5.42,10.41,10.41,0,0,0,0,13.27,21.39,21.39,0,0,0,6.55,5.42,38.11,38.11,0,0,0,9.67,3.64A49.88,49.88,0,0,0,722,658.89a47.66,47.66,0,0,0,11.7-1.36,35.85,35.85,0,0,0,9.38-3.69,20.07,20.07,0,0,0,6.22-5.42,11,11,0,0,0,2.26-6.6v-.65a2.35,2.35,0,0,0-.09-.64Z" transform="translate(-60.89 -106.98)"/><polygon class="cls-2" points="890.02 362.92 746.48 362.92 765.6 395.21 802.08 395.21 802.08 490.77 835.96 490.58 835.96 395.21 869.84 395.21 890.02 362.92"/><rect class="cls-2" x="867.85" y="20.36" width="55.32" height="295.75"/><rect class="cls-2" x="641.25" y="49.03" width="49.39" height="31.27"/><path class="cls-2" d="M919.16,238V127.35h-33c.94,85.56-8.33,110.63-8.33,110.63C840.79,368.9,702.14,369.43,702.14,369.43v53.66C922.56,389.89,919.16,238,919.16,238Z" transform="translate(-60.89 -106.98)"/><path class="cls-2" d="M830.05,625.67,810.4,658h13.26l3.12-5.45h21.45l3.19,5.45H864.6L845,625.67Zm.49,20.37,7-12,7,12Z" transform="translate(-60.89 -106.98)"/><path class="cls-2" d="M1232.84,410.7a11.54,11.54,0,1,0,11.5,11.51A11.56,11.56,0,0,0,1232.84,410.7Z" transform="translate(-60.89 -106.98)"/><path class="cls-2" d="M1034.69,238s-9.27-25.07-8.33-110.63h-33V238s-3.4,151.91,217,185.11V369.43S1071.75,368.9,1034.69,238Z" transform="translate(-60.89 -106.98)"/><rect class="cls-2" x="1105.26" y="362.92" width="34.97" height="127.85"/><rect class="cls-2" x="1116.72" y="612.83" width="23.51" height="50.39"/><path class="cls-2" d="M1199.71,644.36a16.79,16.79,0,0,0-5.28-3,41.14,41.14,0,0,0-7-1.84c-2.56-.45-5.05-.84-7.45-1.18-1.53-.21-3-.43-4.3-.64s-2.51-.46-3.52-.72a9.58,9.58,0,0,1-2.41-.92,1.51,1.51,0,0,1-.9-1.27,1.93,1.93,0,0,1,.82-1.5,7.1,7.1,0,0,1,2.09-1.13,14.23,14.23,0,0,1,2.84-.69,20.48,20.48,0,0,1,3.12-.23,17.69,17.69,0,0,1,3.91.41,21.31,21.31,0,0,1,3.41,1.06,18.77,18.77,0,0,1,2.8,1.43,11,11,0,0,1,2,1.57l11.69-.09c-2.44-4.56-7.28-7.57-11.08-8.88a39.35,39.35,0,0,0-12.89-2,43.49,43.49,0,0,0-7.7.67,29.51,29.51,0,0,0-6.72,2,13.91,13.91,0,0,0-4.75,3.25,6.47,6.47,0,0,0-1.8,4.5,5.79,5.79,0,0,0,2,4.54,15.44,15.44,0,0,0,5.08,2.89,39.34,39.34,0,0,0,6.75,1.73c2.46.41,4.8.76,7,1,1.69.21,3.28.43,4.75.64a30.8,30.8,0,0,1,3.85.79,9.65,9.65,0,0,1,2.58,1.06,1.73,1.73,0,0,1,.94,1.47,1.81,1.81,0,0,1-1.14,1.62,10.85,10.85,0,0,1-2.87.94,25.65,25.65,0,0,1-3.68.47c-1.31.07-2.52.11-3.61.11a19.52,19.52,0,0,1-3.89-.39,22.2,22.2,0,0,1-3.56-1,18.4,18.4,0,0,1-3-1.43,12,12,0,0,1-2.25-1.68h-12.09c1,2.5,7,7.46,10.9,8.85a41.21,41.21,0,0,0,13.72,2.07,74.73,74.73,0,0,0,8.8-.5,37.82,37.82,0,0,0,7.62-1.64,14.32,14.32,0,0,0,5.33-3,6.1,6.1,0,0,0,2-4.64A6,6,0,0,0,1199.71,644.36Z" transform="translate(-60.89 -106.98)"/><polygon class="cls-2" points="1006.54 538.06 1029.77 538.06 1029.77 531.61 1006.54 531.61 1006.54 525.14 1030.2 525.14 1030.2 518.68 994.42 518.68 994.42 550.98 1030.69 550.98 1030.69 544.52 1006.54 544.52 1006.54 538.06"/><path class="cls-2" d="M1136.56,507.73c.43-32.57-34.39-37.83-34.39-37.83h-76.45l17.07,32.3h50s9.29-.55,10.81,6.84c.76,3.71-3.91,7.06-3.91,7.06L1064.29,538l34.1,59.78,41.26-.2-35.51-47.43S1136.13,540.31,1136.56,507.73Z" transform="translate(-60.89 -106.98)"/><path class="cls-3" d="M676.47,107V822.15h592.17V107Zm252.27,20.37h55.32V423.09H928.74ZM702.14,156h49.39v31.28H702.14Zm0,213.42S840.79,368.9,877.85,238c0,0,9.27-25.07,8.33-110.63h33V238s3.4,151.91-217,185.11Zm49.39,272.39a11,11,0,0,1-2.26,6.6,20.07,20.07,0,0,1-6.22,5.42,35.85,35.85,0,0,1-9.38,3.69,47.66,47.66,0,0,1-11.7,1.36,49.88,49.88,0,0,1-11.75-1.34,38.11,38.11,0,0,1-9.67-3.64,21.39,21.39,0,0,1-6.55-5.42,10.41,10.41,0,0,1,0-13.27,21.19,21.19,0,0,1,6.47-5.42,37.7,37.7,0,0,1,9.66-3.69A49.75,49.75,0,0,1,722,624.75,42.88,42.88,0,0,1,735,626.59a32.15,32.15,0,0,1,10,5.17l-10,3.83a17.63,17.63,0,0,0-2.34-1.62,19.34,19.34,0,0,0-3-1.4,21.24,21.24,0,0,0-3.64-1,21.83,21.83,0,0,0-4.09-.37,27,27,0,0,0-7,.87,23,23,0,0,0-5.74,2.33,12.43,12.43,0,0,0-3.84,3.39,6.46,6.46,0,0,0,0,8,12.3,12.3,0,0,0,3.84,3.39,22.58,22.58,0,0,0,5.74,2.33,26.54,26.54,0,0,0,7,.88,29.51,29.51,0,0,0,9.48-1.14c3.56-1.25,6.73-2.28,7.92-5.23l-17.4.51v-6h29.47a2.35,2.35,0,0,1,.09.64ZM770.67,570V544.33l11.07-.44-11.07-16.5-41.48,70.17H692.27L769.15,469.9l79.92,127.66-34.75.2L797.38,570Zm80.75,88-3.19-5.45H826.78L823.66,658H810.4l19.65-32.3h15L864.6,658Zm45.43-60.41-33.88.2V502.2H826.48l-19.11-32.3H950.91l-20.18,32.3H896.85ZM987.51,658H975.23v-20.4l-14,20.4h-5.76l-14-20.4V658H929.13v-32.3h12.28l16.91,22.8,16.91-22.8h12.28Zm26.61-88H987.41V544.33l11.08-.44-11.08-16.5-41.48,70.17H909L985.89,469.9l79.92,127.66-34.75.2Zm77.46,88h-36.27v-32.3h35.78v6.46h-23.66v6.46h23.23v6.46h-23.23v6.46h24.15Zm6.81-60.21L1064.29,538l35.35-21.88s4.67-3.35,3.91-7.06c-1.52-7.39-10.81-6.84-10.81-6.84h-50l-17.07-32.3h76.45s34.82,5.26,34.39,37.83-32.42,42.4-32.42,42.4l35.51,47.43ZM1201.12,770.2h-23.51V719.81h23.51Zm-1.32-116.5a14.32,14.32,0,0,1-5.33,3,37.82,37.82,0,0,1-7.62,1.64,74.73,74.73,0,0,1-8.8.5,41.21,41.21,0,0,1-13.72-2.07c-3.9-1.39-9.93-6.35-10.9-8.85h12.09a12,12,0,0,0,2.25,1.68,18.4,18.4,0,0,0,3,1.43,22.2,22.2,0,0,0,3.56,1,19.52,19.52,0,0,0,3.89.39c1.09,0,2.3,0,3.61-.11a25.65,25.65,0,0,0,3.68-.47,10.85,10.85,0,0,0,2.87-.94,1.81,1.81,0,0,0,1.14-1.62,1.73,1.73,0,0,0-.94-1.47,9.65,9.65,0,0,0-2.58-1.06,30.8,30.8,0,0,0-3.85-.79c-1.47-.21-3.06-.43-4.75-.64-2.24-.28-4.58-.63-7-1a39.34,39.34,0,0,1-6.75-1.73,15.44,15.44,0,0,1-5.08-2.89,5.79,5.79,0,0,1-2-4.54,6.47,6.47,0,0,1,1.8-4.5,13.91,13.91,0,0,1,4.75-3.25,29.51,29.51,0,0,1,6.72-2,43.49,43.49,0,0,1,7.7-.67,39.35,39.35,0,0,1,12.89,2c3.8,1.31,8.64,4.32,11.08,8.88l-11.69.09a11,11,0,0,0-2-1.57,18.77,18.77,0,0,0-2.8-1.43,21.31,21.31,0,0,0-3.41-1.06,17.69,17.69,0,0,0-3.91-.41,20.48,20.48,0,0,0-3.12.23,14.23,14.23,0,0,0-2.84.69,7.1,7.1,0,0,0-2.09,1.13,1.93,1.93,0,0,0-.82,1.5,1.51,1.51,0,0,0,.9,1.27,9.58,9.58,0,0,0,2.41.92c1,.26,2.18.5,3.52.72s2.77.43,4.3.64c2.4.34,4.89.73,7.45,1.18a41.14,41.14,0,0,1,7,1.84,16.79,16.79,0,0,1,5.28,3,6,6,0,0,1,2.08,4.7A6.1,6.1,0,0,1,1199.8,653.7Zm-33.65-55.94V469.9h35V597.76Zm44.25-174.67C990,389.89,993.38,238,993.38,238V127.35h33c-.94,85.56,8.33,110.63,8.33,110.63,37.06,130.92,175.71,131.45,175.71,131.45Zm22.44,10.68a11.54,11.54,0,1,1,11.5-11.56A11.56,11.56,0,0,1,1232.84,433.77Z" transform="translate(-60.89 -106.98)"/><polygon class="cls-3" points="769.65 539.06 783.58 539.06 776.62 527.06 769.65 539.06"/></g></svg>